# Shallow Bay / Ambrose / original stylized boat, not engineering plans
mtllib shallow-bay.mtl
o 01_hull_underside
usemtl bottom
v 2.613000 0.000000 -0.520000
v 2.067000 0.507000 -0.520000
v 1.170000 0.811200 -0.520000
v -2.067000 0.811200 -0.520000
v -2.379000 0.561600 -0.520000
v -2.379000 -0.561600 -0.520000
v -2.067000 -0.811200 -0.520000
v 1.170000 -0.811200 -0.520000
v 2.067000 -0.507000 -0.520000
v 3.149000 0.000000 -0.120000
v 2.491000 0.611000 -0.120000
v 1.410000 0.977600 -0.120000
v -2.491000 0.977600 -0.120000
v -2.867000 0.676800 -0.120000
v -2.867000 -0.676800 -0.120000
v -2.491000 -0.977600 -0.120000
v 1.410000 -0.977600 -0.120000
v 2.491000 -0.611000 -0.120000
f 1 2 11 10
f 2 3 12 11
f 3 4 13 12
f 4 5 14 13
f 5 6 15 14
f 6 7 16 15
f 7 8 17 16
f 8 9 18 17
f 9 1 10 18
f 9 8 7 6 5 4 3 2 1
f 10 11 12 13 14 15 16 17 18
o 02_teal_hull
usemtl hull
v 3.149000 0.000000 -0.120000
v 2.491000 0.611000 -0.120000
v 1.410000 0.977600 -0.120000
v -2.491000 0.977600 -0.120000
v -2.867000 0.676800 -0.120000
v -2.867000 -0.676800 -0.120000
v -2.491000 -0.977600 -0.120000
v 1.410000 -0.977600 -0.120000
v 2.491000 -0.611000 -0.120000
v 3.350000 0.000000 0.370000
v 2.650000 0.650000 0.370000
v 1.500000 1.040000 0.370000
v -2.650000 1.040000 0.370000
v -3.050000 0.720000 0.370000
v -3.050000 -0.720000 0.370000
v -2.650000 -1.040000 0.370000
v 1.500000 -1.040000 0.370000
v 2.650000 -0.650000 0.370000
f 19 20 29 28
f 20 21 30 29
f 21 22 31 30
f 22 23 32 31
f 23 24 33 32
f 24 25 34 33
f 25 26 35 34
f 26 27 36 35
f 27 19 28 36
o 03_painted_rim
usemtl band
v 3.350000 0.000000 0.370000
v 2.650000 0.650000 0.370000
v 1.500000 1.040000 0.370000
v -2.650000 1.040000 0.370000
v -3.050000 0.720000 0.370000
v -3.050000 -0.720000 0.370000
v -2.650000 -1.040000 0.370000
v 1.500000 -1.040000 0.370000
v 2.650000 -0.650000 0.370000
v 3.350000 0.000000 0.470000
v 2.650000 0.650000 0.470000
v 1.500000 1.040000 0.470000
v -2.650000 1.040000 0.470000
v -3.050000 0.720000 0.470000
v -3.050000 -0.720000 0.470000
v -2.650000 -1.040000 0.470000
v 1.500000 -1.040000 0.470000
v 2.650000 -0.650000 0.470000
f 37 38 47 46
f 38 39 48 47
f 39 40 49 48
f 40 41 50 49
f 41 42 51 50
f 42 43 52 51
f 43 44 53 52
f 44 45 54 53
f 45 37 46 54
o 04_open_deck
usemtl deck
v 3.266250 0.000000 0.472000
v 2.583750 0.633750 0.472000
v 1.462500 1.014000 0.472000
v -2.583750 1.014000 0.472000
v -2.973750 0.702000 0.472000
v -2.973750 -0.702000 0.472000
v -2.583750 -1.014000 0.472000
v 1.462500 -1.014000 0.472000
v 2.583750 -0.633750 0.472000
f 55 56 57 58 59 60 61 62 63
o deck_seam
usemtl crate
v -2.950000 -0.724500 0.473000
v 1.850000 -0.724500 0.473000
v 1.850000 -0.715500 0.473000
v -2.950000 -0.715500 0.473000
v -2.950000 -0.724500 0.479000
v 1.850000 -0.724500 0.479000
v 1.850000 -0.715500 0.479000
v -2.950000 -0.715500 0.479000
f 64 67 66 65
f 64 65 69 68
f 65 66 70 69
f 66 67 71 70
f 67 64 68 71
f 68 69 70 71
o deck_seam
usemtl crate
v -2.950000 -0.484500 0.473000
v 1.850000 -0.484500 0.473000
v 1.850000 -0.475500 0.473000
v -2.950000 -0.475500 0.473000
v -2.950000 -0.484500 0.479000
v 1.850000 -0.484500 0.479000
v 1.850000 -0.475500 0.479000
v -2.950000 -0.475500 0.479000
f 72 75 74 73
f 72 73 77 76
f 73 74 78 77
f 74 75 79 78
f 75 72 76 79
f 76 77 78 79
o deck_seam
usemtl crate
v -2.950000 -0.244500 0.473000
v 1.850000 -0.244500 0.473000
v 1.850000 -0.235500 0.473000
v -2.950000 -0.235500 0.473000
v -2.950000 -0.244500 0.479000
v 1.850000 -0.244500 0.479000
v 1.850000 -0.235500 0.479000
v -2.950000 -0.235500 0.479000
f 80 83 82 81
f 80 81 85 84
f 81 82 86 85
f 82 83 87 86
f 83 80 84 87
f 84 85 86 87
o deck_seam
usemtl crate
v -2.950000 -0.004500 0.473000
v 1.850000 -0.004500 0.473000
v 1.850000 0.004500 0.473000
v -2.950000 0.004500 0.473000
v -2.950000 -0.004500 0.479000
v 1.850000 -0.004500 0.479000
v 1.850000 0.004500 0.479000
v -2.950000 0.004500 0.479000
f 88 91 90 89
f 88 89 93 92
f 89 90 94 93
f 90 91 95 94
f 91 88 92 95
f 92 93 94 95
o deck_seam
usemtl crate
v -2.950000 0.235500 0.473000
v 1.850000 0.235500 0.473000
v 1.850000 0.244500 0.473000
v -2.950000 0.244500 0.473000
v -2.950000 0.235500 0.479000
v 1.850000 0.235500 0.479000
v 1.850000 0.244500 0.479000
v -2.950000 0.244500 0.479000
f 96 99 98 97
f 96 97 101 100
f 97 98 102 101
f 98 99 103 102
f 99 96 100 103
f 100 101 102 103
o deck_seam
usemtl crate
v -2.950000 0.475500 0.473000
v 1.850000 0.475500 0.473000
v 1.850000 0.484500 0.473000
v -2.950000 0.484500 0.473000
v -2.950000 0.475500 0.479000
v 1.850000 0.475500 0.479000
v 1.850000 0.484500 0.479000
v -2.950000 0.484500 0.479000
f 104 107 106 105
f 104 105 109 108
f 105 106 110 109
f 106 107 111 110
f 107 104 108 111
f 108 109 110 111
o deck_seam
usemtl crate
v -2.950000 0.715500 0.473000
v 1.850000 0.715500 0.473000
v 1.850000 0.724500 0.473000
v -2.950000 0.724500 0.473000
v -2.950000 0.715500 0.479000
v 1.850000 0.715500 0.479000
v 1.850000 0.724500 0.479000
v -2.950000 0.724500 0.479000
f 112 115 114 113
f 112 113 117 116
f 113 114 118 117
f 114 115 119 118
f 115 112 116 119
f 116 117 118 119
o 05_wheelhouse
usemtl ivory
v -2.650000 -0.690000 0.470000
v -1.230000 -0.690000 0.470000
v -1.230000 0.690000 0.470000
v -2.650000 0.690000 0.470000
v -2.650000 -0.690000 1.530000
v -1.230000 -0.690000 1.530000
v -1.230000 0.690000 1.530000
v -2.650000 0.690000 1.530000
f 120 123 122 121
f 120 121 125 124
f 121 122 126 125
f 122 123 127 126
f 123 120 124 127
f 124 125 126 127
o wheelhouse_roof
usemtl hull
v -2.760000 -0.800000 1.510000
v -1.120000 -0.800000 1.510000
v -1.120000 0.800000 1.510000
v -2.760000 0.800000 1.510000
v -2.760000 -0.800000 1.630000
v -1.120000 -0.800000 1.630000
v -1.120000 0.800000 1.630000
v -2.760000 0.800000 1.630000
f 128 131 130 129
f 128 129 133 132
f 129 130 134 133
f 130 131 135 134
f 131 128 132 135
f 132 133 134 135
o front_window
usemtl glass
v -1.228000 -0.650000 1.005000
v -1.216000 -0.650000 1.005000
v -1.216000 -0.070000 1.005000
v -1.228000 -0.070000 1.005000
v -1.228000 -0.650000 1.395000
v -1.216000 -0.650000 1.395000
v -1.216000 -0.070000 1.395000
v -1.228000 -0.070000 1.395000
f 136 139 138 137
f 136 137 141 140
f 137 138 142 141
f 138 139 143 142
f 139 136 140 143
f 140 141 142 143
o front_window
usemtl glass
v -1.228000 0.070000 1.005000
v -1.216000 0.070000 1.005000
v -1.216000 0.650000 1.005000
v -1.228000 0.650000 1.005000
v -1.228000 0.070000 1.395000
v -1.216000 0.070000 1.395000
v -1.216000 0.650000 1.395000
v -1.228000 0.650000 1.395000
f 144 147 146 145
f 144 145 149 148
f 145 146 150 149
f 146 147 151 150
f 147 144 148 151
f 148 149 150 151
o side_window
usemtl glass
v -2.215000 -0.705000 1.005000
v -1.445000 -0.705000 1.005000
v -1.445000 -0.691000 1.005000
v -2.215000 -0.691000 1.005000
v -2.215000 -0.705000 1.395000
v -1.445000 -0.705000 1.395000
v -1.445000 -0.691000 1.395000
v -2.215000 -0.691000 1.395000
f 152 155 154 153
f 152 153 157 156
f 153 154 158 157
f 154 155 159 158
f 155 152 156 159
f 156 157 158 159
o window_mullion
usemtl ivory
v -1.838000 -0.720000 0.985000
v -1.802000 -0.720000 0.985000
v -1.802000 -0.702000 0.985000
v -1.838000 -0.702000 0.985000
v -1.838000 -0.720000 1.415000
v -1.802000 -0.720000 1.415000
v -1.802000 -0.702000 1.415000
v -1.838000 -0.702000 1.415000
f 160 163 162 161
f 160 161 165 164
f 161 162 166 165
f 162 163 167 166
f 163 160 164 167
f 164 165 166 167
o side_window
usemtl glass
v -2.215000 0.691000 1.005000
v -1.445000 0.691000 1.005000
v -1.445000 0.705000 1.005000
v -2.215000 0.705000 1.005000
v -2.215000 0.691000 1.395000
v -1.445000 0.691000 1.395000
v -1.445000 0.705000 1.395000
v -2.215000 0.705000 1.395000
f 168 171 170 169
f 168 169 173 172
f 169 170 174 173
f 170 171 175 174
f 171 168 172 175
f 172 173 174 175
o window_mullion
usemtl ivory
v -1.838000 0.702000 0.985000
v -1.802000 0.702000 0.985000
v -1.802000 0.720000 0.985000
v -1.838000 0.720000 0.985000
v -1.838000 0.702000 1.415000
v -1.802000 0.702000 1.415000
v -1.802000 0.720000 1.415000
v -1.838000 0.720000 1.415000
f 176 179 178 177
f 176 177 181 180
f 177 178 182 181
f 178 179 183 182
f 179 176 180 183
f 180 181 182 183
o back_door
usemtl hull
v -2.664000 -0.275000 0.495000
v -2.650000 -0.275000 0.495000
v -2.650000 0.275000 0.495000
v -2.664000 0.275000 0.495000
v -2.664000 -0.275000 1.365000
v -2.650000 -0.275000 1.365000
v -2.650000 0.275000 1.365000
v -2.664000 0.275000 1.365000
f 184 187 186 185
f 184 185 189 188
f 185 186 190 189
f 186 187 191 190
f 187 184 188 191
f 188 189 190 191
o door_glass
usemtl glass
v -2.674000 -0.195000 0.985000
v -2.662000 -0.195000 0.985000
v -2.662000 0.195000 0.985000
v -2.674000 0.195000 0.985000
v -2.674000 -0.195000 1.275000
v -2.662000 -0.195000 1.275000
v -2.662000 0.195000 1.275000
v -2.674000 0.195000 1.275000
f 192 195 194 193
f 192 193 197 196
f 193 194 198 197
f 194 195 199 198
f 195 192 196 199
f 196 197 198 199
o door_handle
usemtl brass
v -2.708000 -0.190000 0.890000
v -2.702728 -0.202728 0.890000
v -2.690000 -0.208000 0.890000
v -2.677272 -0.202728 0.890000
v -2.672000 -0.190000 0.890000
v -2.677272 -0.177272 0.890000
v -2.690000 -0.172000 0.890000
v -2.702728 -0.177272 0.890000
v -2.708000 -0.190000 0.980000
v -2.702728 -0.202728 0.980000
v -2.690000 -0.208000 0.980000
v -2.677272 -0.202728 0.980000
v -2.672000 -0.190000 0.980000
v -2.677272 -0.177272 0.980000
v -2.690000 -0.172000 0.980000
v -2.702728 -0.177272 0.980000
f 207 206 205 204 203 202 201 200
f 208 209 210 211 212 213 214 215
f 200 201 209 208
f 201 202 210 209
f 202 203 211 210
f 203 204 212 211
f 204 205 213 212
f 205 206 214 213
f 206 207 215 214
f 207 200 208 215
o chimney
usemtl bottom
v -2.230000 0.280000 1.610000
v -2.200711 0.209289 1.610000
v -2.130000 0.180000 1.610000
v -2.059289 0.209289 1.610000
v -2.030000 0.280000 1.610000
v -2.059289 0.350711 1.610000
v -2.130000 0.380000 1.610000
v -2.200711 0.350711 1.610000
v -2.230000 0.280000 1.970000
v -2.200711 0.209289 1.970000
v -2.130000 0.180000 1.970000
v -2.059289 0.209289 1.970000
v -2.030000 0.280000 1.970000
v -2.059289 0.350711 1.970000
v -2.130000 0.380000 1.970000
v -2.200711 0.350711 1.970000
f 223 222 221 220 219 218 217 216
f 224 225 226 227 228 229 230 231
f 216 217 225 224
f 217 218 226 225
f 218 219 227 226
f 219 220 228 227
f 220 221 229 228
f 221 222 230 229
f 222 223 231 230
f 223 216 224 231
o chimney_cap
usemtl bottom
v -2.270000 0.140000 1.970000
v -1.990000 0.140000 1.970000
v -1.990000 0.420000 1.970000
v -2.270000 0.420000 1.970000
v -2.270000 0.140000 2.030000
v -1.990000 0.140000 2.030000
v -1.990000 0.420000 2.030000
v -2.270000 0.420000 2.030000
f 232 235 234 233
f 232 233 237 236
f 233 234 238 237
f 234 235 239 238
f 235 232 236 239
f 236 237 238 239
o mast
usemtl brass
v -1.589000 -0.390000 1.640000
v -1.580506 -0.410506 1.640000
v -1.560000 -0.419000 1.640000
v -1.539494 -0.410506 1.640000
v -1.531000 -0.390000 1.640000
v -1.539494 -0.369494 1.640000
v -1.560000 -0.361000 1.640000
v -1.580506 -0.369494 1.640000
v -1.589000 -0.390000 2.230000
v -1.580506 -0.410506 2.230000
v -1.560000 -0.419000 2.230000
v -1.539494 -0.410506 2.230000
v -1.531000 -0.390000 2.230000
v -1.539494 -0.369494 2.230000
v -1.560000 -0.361000 2.230000
v -1.580506 -0.369494 2.230000
f 247 246 245 244 243 242 241 240
f 248 249 250 251 252 253 254 255
f 240 241 249 248
f 241 242 250 249
f 242 243 251 250
f 243 244 252 251
f 244 245 253 252
f 245 246 254 253
f 246 247 255 254
f 247 240 248 255
o mast_crosspiece
usemtl brass
v -1.538000 -0.630000 2.080000
v -1.544444 -0.630000 2.064444
v -1.560000 -0.630000 2.058000
v -1.575556 -0.630000 2.064444
v -1.582000 -0.630000 2.080000
v -1.575556 -0.630000 2.095556
v -1.560000 -0.630000 2.102000
v -1.544444 -0.630000 2.095556
v -1.538000 -0.150000 2.080000
v -1.544444 -0.150000 2.064444
v -1.560000 -0.150000 2.058000
v -1.575556 -0.150000 2.064444
v -1.582000 -0.150000 2.080000
v -1.575556 -0.150000 2.095556
v -1.560000 -0.150000 2.102000
v -1.544444 -0.150000 2.095556
f 263 262 261 260 259 258 257 256
f 264 265 266 267 268 269 270 271
f 256 257 265 264
f 257 258 266 265
f 258 259 267 266
f 259 260 268 267
f 260 261 269 268
f 261 262 270 269
f 262 263 271 270
f 263 256 264 271
o navigation_lamp
usemtl ivory
v -1.615000 -0.445000 2.185000
v -1.505000 -0.445000 2.185000
v -1.505000 -0.335000 2.185000
v -1.615000 -0.335000 2.185000
v -1.615000 -0.445000 2.315000
v -1.505000 -0.445000 2.315000
v -1.505000 -0.335000 2.315000
v -1.615000 -0.335000 2.315000
f 272 275 274 273
f 272 273 277 276
f 273 274 278 277
f 274 275 279 278
f 275 272 276 279
f 276 277 278 279
o slot_1_edge
usemtl ivory
v -0.740000 -0.442000 0.478000
v 0.040000 -0.442000 0.478000
v 0.040000 -0.418000 0.478000
v -0.740000 -0.418000 0.478000
v -0.740000 -0.442000 0.496000
v 0.040000 -0.442000 0.496000
v 0.040000 -0.418000 0.496000
v -0.740000 -0.418000 0.496000
f 280 283 282 281
f 280 281 285 284
f 281 282 286 285
f 282 283 287 286
f 283 280 284 287
f 284 285 286 287
o slot_1_edge
usemtl ivory
v -0.740000 0.418000 0.478000
v 0.040000 0.418000 0.478000
v 0.040000 0.442000 0.478000
v -0.740000 0.442000 0.478000
v -0.740000 0.418000 0.496000
v 0.040000 0.418000 0.496000
v 0.040000 0.442000 0.496000
v -0.740000 0.442000 0.496000
f 288 291 290 289
f 288 289 293 292
f 289 290 294 293
f 290 291 295 294
f 291 288 292 295
f 292 293 294 295
o slot_1_edge
usemtl ivory
v -0.752000 -0.440000 0.478000
v -0.728000 -0.440000 0.478000
v -0.728000 0.440000 0.478000
v -0.752000 0.440000 0.478000
v -0.752000 -0.440000 0.496000
v -0.728000 -0.440000 0.496000
v -0.728000 0.440000 0.496000
v -0.752000 0.440000 0.496000
f 296 299 298 297
f 296 297 301 300
f 297 298 302 301
f 298 299 303 302
f 299 296 300 303
f 300 301 302 303
o slot_1_edge
usemtl ivory
v 0.028000 -0.440000 0.478000
v 0.052000 -0.440000 0.478000
v 0.052000 0.440000 0.478000
v 0.028000 0.440000 0.478000
v 0.028000 -0.440000 0.496000
v 0.052000 -0.440000 0.496000
v 0.052000 0.440000 0.496000
v 0.028000 0.440000 0.496000
f 304 307 306 305
f 304 305 309 308
f 305 306 310 309
f 306 307 311 310
f 307 304 308 311
f 308 309 310 311
o cargo_1
usemtl crate
v -0.690000 -0.340000 0.500000
v -0.010000 -0.340000 0.500000
v -0.010000 0.340000 0.500000
v -0.690000 0.340000 0.500000
v -0.690000 -0.340000 1.110000
v -0.010000 -0.340000 1.110000
v -0.010000 0.340000 1.110000
v -0.690000 0.340000 1.110000
f 312 315 314 313
f 312 313 317 316
f 313 314 318 317
f 314 315 319 318
f 315 312 316 319
f 316 317 318 319
o cargo_1_strap
usemtl paper
v -0.695000 -0.252000 1.107500
v -0.005000 -0.252000 1.107500
v -0.005000 -0.208000 1.107500
v -0.695000 -0.208000 1.107500
v -0.695000 -0.252000 1.124500
v -0.005000 -0.252000 1.124500
v -0.005000 -0.208000 1.124500
v -0.695000 -0.208000 1.124500
f 320 323 322 321
f 320 321 325 324
f 321 322 326 325
f 322 323 327 326
f 323 320 324 327
f 324 325 326 327
o cargo_1_strap
usemtl paper
v -0.695000 0.208000 1.107500
v -0.005000 0.208000 1.107500
v -0.005000 0.252000 1.107500
v -0.695000 0.252000 1.107500
v -0.695000 0.208000 1.124500
v -0.005000 0.208000 1.124500
v -0.005000 0.252000 1.124500
v -0.695000 0.252000 1.124500
f 328 331 330 329
f 328 329 333 332
f 329 330 334 333
f 330 331 335 334
f 331 328 332 335
f 332 333 334 335
o cargo_1_strap
usemtl paper
v -0.702000 -0.252000 0.500000
v -0.684000 -0.252000 0.500000
v -0.684000 -0.208000 0.500000
v -0.702000 -0.208000 0.500000
v -0.702000 -0.252000 1.110000
v -0.684000 -0.252000 1.110000
v -0.684000 -0.208000 1.110000
v -0.702000 -0.208000 1.110000
f 336 339 338 337
f 336 337 341 340
f 337 338 342 341
f 338 339 343 342
f 339 336 340 343
f 340 341 342 343
o cargo_1_strap
usemtl paper
v -0.702000 0.208000 0.500000
v -0.684000 0.208000 0.500000
v -0.684000 0.252000 0.500000
v -0.702000 0.252000 0.500000
v -0.702000 0.208000 1.110000
v -0.684000 0.208000 1.110000
v -0.684000 0.252000 1.110000
v -0.702000 0.252000 1.110000
f 344 347 346 345
f 344 345 349 348
f 345 346 350 349
f 346 347 351 350
f 347 344 348 351
f 348 349 350 351
o cargo_1_strap
usemtl paper
v -0.016000 -0.252000 0.500000
v 0.002000 -0.252000 0.500000
v 0.002000 -0.208000 0.500000
v -0.016000 -0.208000 0.500000
v -0.016000 -0.252000 1.110000
v 0.002000 -0.252000 1.110000
v 0.002000 -0.208000 1.110000
v -0.016000 -0.208000 1.110000
f 352 355 354 353
f 352 353 357 356
f 353 354 358 357
f 354 355 359 358
f 355 352 356 359
f 356 357 358 359
o cargo_1_strap
usemtl paper
v -0.016000 0.208000 0.500000
v 0.002000 0.208000 0.500000
v 0.002000 0.252000 0.500000
v -0.016000 0.252000 0.500000
v -0.016000 0.208000 1.110000
v 0.002000 0.208000 1.110000
v 0.002000 0.252000 1.110000
v -0.016000 0.252000 1.110000
f 360 363 362 361
f 360 361 365 364
f 361 362 366 365
f 362 363 367 366
f 363 360 364 367
f 364 365 366 367
o slot_2_edge
usemtl ivory
v 0.180000 -0.442000 0.478000
v 0.960000 -0.442000 0.478000
v 0.960000 -0.418000 0.478000
v 0.180000 -0.418000 0.478000
v 0.180000 -0.442000 0.496000
v 0.960000 -0.442000 0.496000
v 0.960000 -0.418000 0.496000
v 0.180000 -0.418000 0.496000
f 368 371 370 369
f 368 369 373 372
f 369 370 374 373
f 370 371 375 374
f 371 368 372 375
f 372 373 374 375
o slot_2_edge
usemtl ivory
v 0.180000 0.418000 0.478000
v 0.960000 0.418000 0.478000
v 0.960000 0.442000 0.478000
v 0.180000 0.442000 0.478000
v 0.180000 0.418000 0.496000
v 0.960000 0.418000 0.496000
v 0.960000 0.442000 0.496000
v 0.180000 0.442000 0.496000
f 376 379 378 377
f 376 377 381 380
f 377 378 382 381
f 378 379 383 382
f 379 376 380 383
f 380 381 382 383
o slot_2_edge
usemtl ivory
v 0.168000 -0.440000 0.478000
v 0.192000 -0.440000 0.478000
v 0.192000 0.440000 0.478000
v 0.168000 0.440000 0.478000
v 0.168000 -0.440000 0.496000
v 0.192000 -0.440000 0.496000
v 0.192000 0.440000 0.496000
v 0.168000 0.440000 0.496000
f 384 387 386 385
f 384 385 389 388
f 385 386 390 389
f 386 387 391 390
f 387 384 388 391
f 388 389 390 391
o slot_2_edge
usemtl ivory
v 0.948000 -0.440000 0.478000
v 0.972000 -0.440000 0.478000
v 0.972000 0.440000 0.478000
v 0.948000 0.440000 0.478000
v 0.948000 -0.440000 0.496000
v 0.972000 -0.440000 0.496000
v 0.972000 0.440000 0.496000
v 0.948000 0.440000 0.496000
f 392 395 394 393
f 392 393 397 396
f 393 394 398 397
f 394 395 399 398
f 395 392 396 399
f 396 397 398 399
o cargo_2
usemtl green
v 0.230000 -0.340000 0.500000
v 0.910000 -0.340000 0.500000
v 0.910000 0.340000 0.500000
v 0.230000 0.340000 0.500000
v 0.230000 -0.340000 0.940000
v 0.910000 -0.340000 0.940000
v 0.910000 0.340000 0.940000
v 0.230000 0.340000 0.940000
f 400 403 402 401
f 400 401 405 404
f 401 402 406 405
f 402 403 407 406
f 403 400 404 407
f 404 405 406 407
o cargo_2_strap
usemtl paper
v 0.225000 -0.252000 0.937500
v 0.915000 -0.252000 0.937500
v 0.915000 -0.208000 0.937500
v 0.225000 -0.208000 0.937500
v 0.225000 -0.252000 0.954500
v 0.915000 -0.252000 0.954500
v 0.915000 -0.208000 0.954500
v 0.225000 -0.208000 0.954500
f 408 411 410 409
f 408 409 413 412
f 409 410 414 413
f 410 411 415 414
f 411 408 412 415
f 412 413 414 415
o cargo_2_strap
usemtl paper
v 0.225000 0.208000 0.937500
v 0.915000 0.208000 0.937500
v 0.915000 0.252000 0.937500
v 0.225000 0.252000 0.937500
v 0.225000 0.208000 0.954500
v 0.915000 0.208000 0.954500
v 0.915000 0.252000 0.954500
v 0.225000 0.252000 0.954500
f 416 419 418 417
f 416 417 421 420
f 417 418 422 421
f 418 419 423 422
f 419 416 420 423
f 420 421 422 423
o cargo_2_strap
usemtl paper
v 0.218000 -0.252000 0.500000
v 0.236000 -0.252000 0.500000
v 0.236000 -0.208000 0.500000
v 0.218000 -0.208000 0.500000
v 0.218000 -0.252000 0.940000
v 0.236000 -0.252000 0.940000
v 0.236000 -0.208000 0.940000
v 0.218000 -0.208000 0.940000
f 424 427 426 425
f 424 425 429 428
f 425 426 430 429
f 426 427 431 430
f 427 424 428 431
f 428 429 430 431
o cargo_2_strap
usemtl paper
v 0.218000 0.208000 0.500000
v 0.236000 0.208000 0.500000
v 0.236000 0.252000 0.500000
v 0.218000 0.252000 0.500000
v 0.218000 0.208000 0.940000
v 0.236000 0.208000 0.940000
v 0.236000 0.252000 0.940000
v 0.218000 0.252000 0.940000
f 432 435 434 433
f 432 433 437 436
f 433 434 438 437
f 434 435 439 438
f 435 432 436 439
f 436 437 438 439
o cargo_2_strap
usemtl paper
v 0.904000 -0.252000 0.500000
v 0.922000 -0.252000 0.500000
v 0.922000 -0.208000 0.500000
v 0.904000 -0.208000 0.500000
v 0.904000 -0.252000 0.940000
v 0.922000 -0.252000 0.940000
v 0.922000 -0.208000 0.940000
v 0.904000 -0.208000 0.940000
f 440 443 442 441
f 440 441 445 444
f 441 442 446 445
f 442 443 447 446
f 443 440 444 447
f 444 445 446 447
o cargo_2_strap
usemtl paper
v 0.904000 0.208000 0.500000
v 0.922000 0.208000 0.500000
v 0.922000 0.252000 0.500000
v 0.904000 0.252000 0.500000
v 0.904000 0.208000 0.940000
v 0.922000 0.208000 0.940000
v 0.922000 0.252000 0.940000
v 0.904000 0.252000 0.940000
f 448 451 450 449
f 448 449 453 452
f 449 450 454 453
f 450 451 455 454
f 451 448 452 455
f 452 453 454 455
o slot_3_edge
usemtl ivory
v 1.100000 -0.442000 0.478000
v 1.880000 -0.442000 0.478000
v 1.880000 -0.418000 0.478000
v 1.100000 -0.418000 0.478000
v 1.100000 -0.442000 0.496000
v 1.880000 -0.442000 0.496000
v 1.880000 -0.418000 0.496000
v 1.100000 -0.418000 0.496000
f 456 459 458 457
f 456 457 461 460
f 457 458 462 461
f 458 459 463 462
f 459 456 460 463
f 460 461 462 463
o slot_3_edge
usemtl ivory
v 1.100000 0.418000 0.478000
v 1.880000 0.418000 0.478000
v 1.880000 0.442000 0.478000
v 1.100000 0.442000 0.478000
v 1.100000 0.418000 0.496000
v 1.880000 0.418000 0.496000
v 1.880000 0.442000 0.496000
v 1.100000 0.442000 0.496000
f 464 467 466 465
f 464 465 469 468
f 465 466 470 469
f 466 467 471 470
f 467 464 468 471
f 468 469 470 471
o slot_3_edge
usemtl ivory
v 1.088000 -0.440000 0.478000
v 1.112000 -0.440000 0.478000
v 1.112000 0.440000 0.478000
v 1.088000 0.440000 0.478000
v 1.088000 -0.440000 0.496000
v 1.112000 -0.440000 0.496000
v 1.112000 0.440000 0.496000
v 1.088000 0.440000 0.496000
f 472 475 474 473
f 472 473 477 476
f 473 474 478 477
f 474 475 479 478
f 475 472 476 479
f 476 477 478 479
o slot_3_edge
usemtl ivory
v 1.868000 -0.440000 0.478000
v 1.892000 -0.440000 0.478000
v 1.892000 0.440000 0.478000
v 1.868000 0.440000 0.478000
v 1.868000 -0.440000 0.496000
v 1.892000 -0.440000 0.496000
v 1.892000 0.440000 0.496000
v 1.868000 0.440000 0.496000
f 480 483 482 481
f 480 481 485 484
f 481 482 486 485
f 482 483 487 486
f 483 480 484 487
f 484 485 486 487
o cargo_3
usemtl crate2
v 1.150000 -0.340000 0.500000
v 1.830000 -0.340000 0.500000
v 1.830000 0.340000 0.500000
v 1.150000 0.340000 0.500000
v 1.150000 -0.340000 1.010000
v 1.830000 -0.340000 1.010000
v 1.830000 0.340000 1.010000
v 1.150000 0.340000 1.010000
f 488 491 490 489
f 488 489 493 492
f 489 490 494 493
f 490 491 495 494
f 491 488 492 495
f 492 493 494 495
o cargo_3_strap
usemtl paper
v 1.145000 -0.252000 1.007500
v 1.835000 -0.252000 1.007500
v 1.835000 -0.208000 1.007500
v 1.145000 -0.208000 1.007500
v 1.145000 -0.252000 1.024500
v 1.835000 -0.252000 1.024500
v 1.835000 -0.208000 1.024500
v 1.145000 -0.208000 1.024500
f 496 499 498 497
f 496 497 501 500
f 497 498 502 501
f 498 499 503 502
f 499 496 500 503
f 500 501 502 503
o cargo_3_strap
usemtl paper
v 1.145000 0.208000 1.007500
v 1.835000 0.208000 1.007500
v 1.835000 0.252000 1.007500
v 1.145000 0.252000 1.007500
v 1.145000 0.208000 1.024500
v 1.835000 0.208000 1.024500
v 1.835000 0.252000 1.024500
v 1.145000 0.252000 1.024500
f 504 507 506 505
f 504 505 509 508
f 505 506 510 509
f 506 507 511 510
f 507 504 508 511
f 508 509 510 511
o cargo_3_strap
usemtl paper
v 1.138000 -0.252000 0.500000
v 1.156000 -0.252000 0.500000
v 1.156000 -0.208000 0.500000
v 1.138000 -0.208000 0.500000
v 1.138000 -0.252000 1.010000
v 1.156000 -0.252000 1.010000
v 1.156000 -0.208000 1.010000
v 1.138000 -0.208000 1.010000
f 512 515 514 513
f 512 513 517 516
f 513 514 518 517
f 514 515 519 518
f 515 512 516 519
f 516 517 518 519
o cargo_3_strap
usemtl paper
v 1.138000 0.208000 0.500000
v 1.156000 0.208000 0.500000
v 1.156000 0.252000 0.500000
v 1.138000 0.252000 0.500000
v 1.138000 0.208000 1.010000
v 1.156000 0.208000 1.010000
v 1.156000 0.252000 1.010000
v 1.138000 0.252000 1.010000
f 520 523 522 521
f 520 521 525 524
f 521 522 526 525
f 522 523 527 526
f 523 520 524 527
f 524 525 526 527
o cargo_3_strap
usemtl paper
v 1.824000 -0.252000 0.500000
v 1.842000 -0.252000 0.500000
v 1.842000 -0.208000 0.500000
v 1.824000 -0.208000 0.500000
v 1.824000 -0.252000 1.010000
v 1.842000 -0.252000 1.010000
v 1.842000 -0.208000 1.010000
v 1.824000 -0.208000 1.010000
f 528 531 530 529
f 528 529 533 532
f 529 530 534 533
f 530 531 535 534
f 531 528 532 535
f 532 533 534 535
o cargo_3_strap
usemtl paper
v 1.824000 0.208000 0.500000
v 1.842000 0.208000 0.500000
v 1.842000 0.252000 0.500000
v 1.824000 0.252000 0.500000
v 1.824000 0.208000 1.010000
v 1.842000 0.208000 1.010000
v 1.842000 0.252000 1.010000
v 1.824000 0.252000 1.010000
f 536 539 538 537
f 536 537 541 540
f 537 538 542 541
f 538 539 543 542
f 539 536 540 543
f 540 541 542 543
o rail_stanchion
usemtl ivory
v -2.724000 -0.940000 0.480000
v -2.716971 -0.956971 0.480000
v -2.700000 -0.964000 0.480000
v -2.683029 -0.956971 0.480000
v -2.676000 -0.940000 0.480000
v -2.683029 -0.923029 0.480000
v -2.700000 -0.916000 0.480000
v -2.716971 -0.923029 0.480000
v -2.724000 -0.940000 0.930000
v -2.716971 -0.956971 0.930000
v -2.700000 -0.964000 0.930000
v -2.683029 -0.956971 0.930000
v -2.676000 -0.940000 0.930000
v -2.683029 -0.923029 0.930000
v -2.700000 -0.916000 0.930000
v -2.716971 -0.923029 0.930000
f 551 550 549 548 547 546 545 544
f 552 553 554 555 556 557 558 559
f 544 545 553 552
f 545 546 554 553
f 546 547 555 554
f 547 548 556 555
f 548 549 557 556
f 549 550 558 557
f 550 551 559 558
f 551 544 552 559
o rail_stanchion
usemtl ivory
v -1.924000 -0.940000 0.480000
v -1.916971 -0.956971 0.480000
v -1.900000 -0.964000 0.480000
v -1.883029 -0.956971 0.480000
v -1.876000 -0.940000 0.480000
v -1.883029 -0.923029 0.480000
v -1.900000 -0.916000 0.480000
v -1.916971 -0.923029 0.480000
v -1.924000 -0.940000 0.930000
v -1.916971 -0.956971 0.930000
v -1.900000 -0.964000 0.930000
v -1.883029 -0.956971 0.930000
v -1.876000 -0.940000 0.930000
v -1.883029 -0.923029 0.930000
v -1.900000 -0.916000 0.930000
v -1.916971 -0.923029 0.930000
f 567 566 565 564 563 562 561 560
f 568 569 570 571 572 573 574 575
f 560 561 569 568
f 561 562 570 569
f 562 563 571 570
f 563 564 572 571
f 564 565 573 572
f 565 566 574 573
f 566 567 575 574
f 567 560 568 575
o rail_stanchion
usemtl ivory
v -1.124000 -0.940000 0.480000
v -1.116971 -0.956971 0.480000
v -1.100000 -0.964000 0.480000
v -1.083029 -0.956971 0.480000
v -1.076000 -0.940000 0.480000
v -1.083029 -0.923029 0.480000
v -1.100000 -0.916000 0.480000
v -1.116971 -0.923029 0.480000
v -1.124000 -0.940000 0.930000
v -1.116971 -0.956971 0.930000
v -1.100000 -0.964000 0.930000
v -1.083029 -0.956971 0.930000
v -1.076000 -0.940000 0.930000
v -1.083029 -0.923029 0.930000
v -1.100000 -0.916000 0.930000
v -1.116971 -0.923029 0.930000
f 583 582 581 580 579 578 577 576
f 584 585 586 587 588 589 590 591
f 576 577 585 584
f 577 578 586 585
f 578 579 587 586
f 579 580 588 587
f 580 581 589 588
f 581 582 590 589
f 582 583 591 590
f 583 576 584 591
o handrail
usemtl ivory
v -2.700000 -0.967000 0.930000
v -2.700000 -0.959092 0.910908
v -2.700000 -0.940000 0.903000
v -2.700000 -0.920908 0.910908
v -2.700000 -0.913000 0.930000
v -2.700000 -0.920908 0.949092
v -2.700000 -0.940000 0.957000
v -2.700000 -0.959092 0.949092
v -1.100000 -0.967000 0.930000
v -1.100000 -0.959092 0.910908
v -1.100000 -0.940000 0.903000
v -1.100000 -0.920908 0.910908
v -1.100000 -0.913000 0.930000
v -1.100000 -0.920908 0.949092
v -1.100000 -0.940000 0.957000
v -1.100000 -0.959092 0.949092
f 599 598 597 596 595 594 593 592
f 600 601 602 603 604 605 606 607
f 592 593 601 600
f 593 594 602 601
f 594 595 603 602
f 595 596 604 603
f 596 597 605 604
f 597 598 606 605
f 598 599 607 606
f 599 592 600 607
o rail_stanchion
usemtl ivory
v -0.974000 -0.940000 0.480000
v -0.966971 -0.956971 0.480000
v -0.950000 -0.964000 0.480000
v -0.933029 -0.956971 0.480000
v -0.926000 -0.940000 0.480000
v -0.933029 -0.923029 0.480000
v -0.950000 -0.916000 0.480000
v -0.966971 -0.923029 0.480000
v -0.974000 -0.940000 0.930000
v -0.966971 -0.956971 0.930000
v -0.950000 -0.964000 0.930000
v -0.933029 -0.956971 0.930000
v -0.926000 -0.940000 0.930000
v -0.933029 -0.923029 0.930000
v -0.950000 -0.916000 0.930000
v -0.966971 -0.923029 0.930000
f 615 614 613 612 611 610 609 608
f 616 617 618 619 620 621 622 623
f 608 609 617 616
f 609 610 618 617
f 610 611 619 618
f 611 612 620 619
f 612 613 621 620
f 613 614 622 621
f 614 615 623 622
f 615 608 616 623
o rail_stanchion
usemtl ivory
v 0.326000 -0.940000 0.480000
v 0.333029 -0.956971 0.480000
v 0.350000 -0.964000 0.480000
v 0.366971 -0.956971 0.480000
v 0.374000 -0.940000 0.480000
v 0.366971 -0.923029 0.480000
v 0.350000 -0.916000 0.480000
v 0.333029 -0.923029 0.480000
v 0.326000 -0.940000 0.930000
v 0.333029 -0.956971 0.930000
v 0.350000 -0.964000 0.930000
v 0.366971 -0.956971 0.930000
v 0.374000 -0.940000 0.930000
v 0.366971 -0.923029 0.930000
v 0.350000 -0.916000 0.930000
v 0.333029 -0.923029 0.930000
f 631 630 629 628 627 626 625 624
f 632 633 634 635 636 637 638 639
f 624 625 633 632
f 625 626 634 633
f 626 627 635 634
f 627 628 636 635
f 628 629 637 636
f 629 630 638 637
f 630 631 639 638
f 631 624 632 639
o rail_stanchion
usemtl ivory
v 1.626000 -0.940000 0.480000
v 1.633029 -0.956971 0.480000
v 1.650000 -0.964000 0.480000
v 1.666971 -0.956971 0.480000
v 1.674000 -0.940000 0.480000
v 1.666971 -0.923029 0.480000
v 1.650000 -0.916000 0.480000
v 1.633029 -0.923029 0.480000
v 1.626000 -0.940000 0.930000
v 1.633029 -0.956971 0.930000
v 1.650000 -0.964000 0.930000
v 1.666971 -0.956971 0.930000
v 1.674000 -0.940000 0.930000
v 1.666971 -0.923029 0.930000
v 1.650000 -0.916000 0.930000
v 1.633029 -0.923029 0.930000
f 647 646 645 644 643 642 641 640
f 648 649 650 651 652 653 654 655
f 640 641 649 648
f 641 642 650 649
f 642 643 651 650
f 643 644 652 651
f 644 645 653 652
f 645 646 654 653
f 646 647 655 654
f 647 640 648 655
o handrail
usemtl ivory
v -0.950000 -0.967000 0.930000
v -0.950000 -0.959092 0.910908
v -0.950000 -0.940000 0.903000
v -0.950000 -0.920908 0.910908
v -0.950000 -0.913000 0.930000
v -0.950000 -0.920908 0.949092
v -0.950000 -0.940000 0.957000
v -0.950000 -0.959092 0.949092
v 1.650000 -0.967000 0.930000
v 1.650000 -0.959092 0.910908
v 1.650000 -0.940000 0.903000
v 1.650000 -0.920908 0.910908
v 1.650000 -0.913000 0.930000
v 1.650000 -0.920908 0.949092
v 1.650000 -0.940000 0.957000
v 1.650000 -0.959092 0.949092
f 663 662 661 660 659 658 657 656
f 664 665 666 667 668 669 670 671
f 656 657 665 664
f 657 658 666 665
f 658 659 667 666
f 659 660 668 667
f 660 661 669 668
f 661 662 670 669
f 662 663 671 670
f 663 656 664 671
o bow_rail
usemtl ivory
v 1.659188 -0.964322 0.930000
v 1.656497 -0.957198 0.911615
v 1.650000 -0.940000 0.904000
v 1.643503 -0.922802 0.911615
v 1.640812 -0.915678 0.930000
v 1.643503 -0.922802 0.948385
v 1.650000 -0.940000 0.956000
v 1.656497 -0.957198 0.948385
v 2.559188 -0.624322 0.930000
v 2.556497 -0.617198 0.911615
v 2.550000 -0.600000 0.904000
v 2.543503 -0.582802 0.911615
v 2.540812 -0.575678 0.930000
v 2.543503 -0.582802 0.948385
v 2.550000 -0.600000 0.956000
v 2.556497 -0.617198 0.948385
f 679 678 677 676 675 674 673 672
f 680 681 682 683 684 685 686 687
f 672 673 681 680
f 673 674 682 681
f 674 675 683 682
f 675 676 684 683
f 676 677 685 684
f 677 678 686 685
f 678 679 687 686
f 679 672 680 687
o bow_rail
usemtl ivory
v 2.568385 -0.618385 0.930000
v 2.563000 -0.613000 0.911615
v 2.550000 -0.600000 0.904000
v 2.537000 -0.587000 0.911615
v 2.531615 -0.581615 0.930000
v 2.537000 -0.587000 0.948385
v 2.550000 -0.600000 0.956000
v 2.563000 -0.613000 0.948385
v 3.168385 -0.018385 0.930000
v 3.163000 -0.013000 0.911615
v 3.150000 -0.000000 0.904000
v 3.137000 0.013000 0.911615
v 3.131615 0.018385 0.930000
v 3.137000 0.013000 0.948385
v 3.150000 0.000000 0.956000
v 3.163000 -0.013000 0.948385
f 695 694 693 692 691 690 689 688
f 696 697 698 699 700 701 702 703
f 688 689 697 696
f 689 690 698 697
f 690 691 699 698
f 691 692 700 699
f 692 693 701 700
f 693 694 702 701
f 694 695 703 702
f 695 688 696 703
o fender
usemtl rubber
v -2.505000 -1.047000 0.100000
v -2.484947 -1.108717 0.100000
v -2.432447 -1.146861 0.100000
v -2.367553 -1.146861 0.100000
v -2.315053 -1.108717 0.100000
v -2.295000 -1.047000 0.100000
v -2.315053 -0.985283 0.100000
v -2.367553 -0.947139 0.100000
v -2.432447 -0.947139 0.100000
v -2.484947 -0.985283 0.100000
v -2.505000 -1.047000 0.520000
v -2.484947 -1.108717 0.520000
v -2.432447 -1.146861 0.520000
v -2.367553 -1.146861 0.520000
v -2.315053 -1.108717 0.520000
v -2.295000 -1.047000 0.520000
v -2.315053 -0.985283 0.520000
v -2.367553 -0.947139 0.520000
v -2.432447 -0.947139 0.520000
v -2.484947 -0.985283 0.520000
f 713 712 711 710 709 708 707 706 705 704
f 714 715 716 717 718 719 720 721 722 723
f 704 705 715 714
f 705 706 716 715
f 706 707 717 716
f 707 708 718 717
f 708 709 719 718
f 709 710 720 719
f 710 711 721 720
f 711 712 722 721
f 712 713 723 722
f 713 704 714 723
o fender_rope
usemtl paper
v -2.412000 -1.020000 0.490000
v -2.406000 -1.030158 0.492196
v -2.394000 -1.030158 0.492196
v -2.388000 -1.020000 0.490000
v -2.394000 -1.009842 0.487804
v -2.406000 -1.009842 0.487804
v -2.412000 -0.940000 0.860000
v -2.406000 -0.950158 0.862196
v -2.394000 -0.950158 0.862196
v -2.388000 -0.940000 0.860000
v -2.394000 -0.929842 0.857804
v -2.406000 -0.929842 0.857804
f 729 728 727 726 725 724
f 730 731 732 733 734 735
f 724 725 731 730
f 725 726 732 731
f 726 727 733 732
f 727 728 734 733
f 728 729 735 734
f 729 724 730 735
o fender
usemtl rubber
v -0.805000 -1.047000 0.100000
v -0.784947 -1.108717 0.100000
v -0.732447 -1.146861 0.100000
v -0.667553 -1.146861 0.100000
v -0.615053 -1.108717 0.100000
v -0.595000 -1.047000 0.100000
v -0.615053 -0.985283 0.100000
v -0.667553 -0.947139 0.100000
v -0.732447 -0.947139 0.100000
v -0.784947 -0.985283 0.100000
v -0.805000 -1.047000 0.520000
v -0.784947 -1.108717 0.520000
v -0.732447 -1.146861 0.520000
v -0.667553 -1.146861 0.520000
v -0.615053 -1.108717 0.520000
v -0.595000 -1.047000 0.520000
v -0.615053 -0.985283 0.520000
v -0.667553 -0.947139 0.520000
v -0.732447 -0.947139 0.520000
v -0.784947 -0.985283 0.520000
f 745 744 743 742 741 740 739 738 737 736
f 746 747 748 749 750 751 752 753 754 755
f 736 737 747 746
f 737 738 748 747
f 738 739 749 748
f 739 740 750 749
f 740 741 751 750
f 741 742 752 751
f 742 743 753 752
f 743 744 754 753
f 744 745 755 754
f 745 736 746 755
o fender_rope
usemtl paper
v -0.712000 -1.020000 0.490000
v -0.706000 -1.030158 0.492196
v -0.694000 -1.030158 0.492196
v -0.688000 -1.020000 0.490000
v -0.694000 -1.009842 0.487804
v -0.706000 -1.009842 0.487804
v -0.712000 -0.940000 0.860000
v -0.706000 -0.950158 0.862196
v -0.694000 -0.950158 0.862196
v -0.688000 -0.940000 0.860000
v -0.694000 -0.929842 0.857804
v -0.706000 -0.929842 0.857804
f 761 760 759 758 757 756
f 762 763 764 765 766 767
f 756 757 763 762
f 757 758 764 763
f 758 759 765 764
f 759 760 766 765
f 760 761 767 766
f 761 756 762 767
o fender
usemtl rubber
v 1.245000 -1.047000 0.100000
v 1.265053 -1.108717 0.100000
v 1.317553 -1.146861 0.100000
v 1.382447 -1.146861 0.100000
v 1.434947 -1.108717 0.100000
v 1.455000 -1.047000 0.100000
v 1.434947 -0.985283 0.100000
v 1.382447 -0.947139 0.100000
v 1.317553 -0.947139 0.100000
v 1.265053 -0.985283 0.100000
v 1.245000 -1.047000 0.520000
v 1.265053 -1.108717 0.520000
v 1.317553 -1.146861 0.520000
v 1.382447 -1.146861 0.520000
v 1.434947 -1.108717 0.520000
v 1.455000 -1.047000 0.520000
v 1.434947 -0.985283 0.520000
v 1.382447 -0.947139 0.520000
v 1.317553 -0.947139 0.520000
v 1.265053 -0.985283 0.520000
f 777 776 775 774 773 772 771 770 769 768
f 778 779 780 781 782 783 784 785 786 787
f 768 769 779 778
f 769 770 780 779
f 770 771 781 780
f 771 772 782 781
f 772 773 783 782
f 773 774 784 783
f 774 775 785 784
f 775 776 786 785
f 776 777 787 786
f 777 768 778 787
o fender_rope
usemtl paper
v 1.338000 -1.020000 0.490000
v 1.344000 -1.030158 0.492196
v 1.356000 -1.030158 0.492196
v 1.362000 -1.020000 0.490000
v 1.356000 -1.009842 0.487804
v 1.344000 -1.009842 0.487804
v 1.338000 -0.940000 0.860000
v 1.344000 -0.950158 0.862196
v 1.356000 -0.950158 0.862196
v 1.362000 -0.940000 0.860000
v 1.356000 -0.929842 0.857804
v 1.344000 -0.929842 0.857804
f 793 792 791 790 789 788
f 794 795 796 797 798 799
f 788 789 795 794
f 789 790 796 795
f 790 791 797 796
f 791 792 798 797
f 792 793 799 798
f 793 788 794 799
o rail_stanchion
usemtl ivory
v -2.724000 0.940000 0.480000
v -2.716971 0.923029 0.480000
v -2.700000 0.916000 0.480000
v -2.683029 0.923029 0.480000
v -2.676000 0.940000 0.480000
v -2.683029 0.956971 0.480000
v -2.700000 0.964000 0.480000
v -2.716971 0.956971 0.480000
v -2.724000 0.940000 0.930000
v -2.716971 0.923029 0.930000
v -2.700000 0.916000 0.930000
v -2.683029 0.923029 0.930000
v -2.676000 0.940000 0.930000
v -2.683029 0.956971 0.930000
v -2.700000 0.964000 0.930000
v -2.716971 0.956971 0.930000
f 807 806 805 804 803 802 801 800
f 808 809 810 811 812 813 814 815
f 800 801 809 808
f 801 802 810 809
f 802 803 811 810
f 803 804 812 811
f 804 805 813 812
f 805 806 814 813
f 806 807 815 814
f 807 800 808 815
o rail_stanchion
usemtl ivory
v -1.924000 0.940000 0.480000
v -1.916971 0.923029 0.480000
v -1.900000 0.916000 0.480000
v -1.883029 0.923029 0.480000
v -1.876000 0.940000 0.480000
v -1.883029 0.956971 0.480000
v -1.900000 0.964000 0.480000
v -1.916971 0.956971 0.480000
v -1.924000 0.940000 0.930000
v -1.916971 0.923029 0.930000
v -1.900000 0.916000 0.930000
v -1.883029 0.923029 0.930000
v -1.876000 0.940000 0.930000
v -1.883029 0.956971 0.930000
v -1.900000 0.964000 0.930000
v -1.916971 0.956971 0.930000
f 823 822 821 820 819 818 817 816
f 824 825 826 827 828 829 830 831
f 816 817 825 824
f 817 818 826 825
f 818 819 827 826
f 819 820 828 827
f 820 821 829 828
f 821 822 830 829
f 822 823 831 830
f 823 816 824 831
o rail_stanchion
usemtl ivory
v -1.124000 0.940000 0.480000
v -1.116971 0.923029 0.480000
v -1.100000 0.916000 0.480000
v -1.083029 0.923029 0.480000
v -1.076000 0.940000 0.480000
v -1.083029 0.956971 0.480000
v -1.100000 0.964000 0.480000
v -1.116971 0.956971 0.480000
v -1.124000 0.940000 0.930000
v -1.116971 0.923029 0.930000
v -1.100000 0.916000 0.930000
v -1.083029 0.923029 0.930000
v -1.076000 0.940000 0.930000
v -1.083029 0.956971 0.930000
v -1.100000 0.964000 0.930000
v -1.116971 0.956971 0.930000
f 839 838 837 836 835 834 833 832
f 840 841 842 843 844 845 846 847
f 832 833 841 840
f 833 834 842 841
f 834 835 843 842
f 835 836 844 843
f 836 837 845 844
f 837 838 846 845
f 838 839 847 846
f 839 832 840 847
o handrail
usemtl ivory
v -2.700000 0.913000 0.930000
v -2.700000 0.920908 0.910908
v -2.700000 0.940000 0.903000
v -2.700000 0.959092 0.910908
v -2.700000 0.967000 0.930000
v -2.700000 0.959092 0.949092
v -2.700000 0.940000 0.957000
v -2.700000 0.920908 0.949092
v -1.100000 0.913000 0.930000
v -1.100000 0.920908 0.910908
v -1.100000 0.940000 0.903000
v -1.100000 0.959092 0.910908
v -1.100000 0.967000 0.930000
v -1.100000 0.959092 0.949092
v -1.100000 0.940000 0.957000
v -1.100000 0.920908 0.949092
f 855 854 853 852 851 850 849 848
f 856 857 858 859 860 861 862 863
f 848 849 857 856
f 849 850 858 857
f 850 851 859 858
f 851 852 860 859
f 852 853 861 860
f 853 854 862 861
f 854 855 863 862
f 855 848 856 863
o rail_stanchion
usemtl ivory
v 0.026000 0.940000 0.480000
v 0.033029 0.923029 0.480000
v 0.050000 0.916000 0.480000
v 0.066971 0.923029 0.480000
v 0.074000 0.940000 0.480000
v 0.066971 0.956971 0.480000
v 0.050000 0.964000 0.480000
v 0.033029 0.956971 0.480000
v 0.026000 0.940000 0.930000
v 0.033029 0.923029 0.930000
v 0.050000 0.916000 0.930000
v 0.066971 0.923029 0.930000
v 0.074000 0.940000 0.930000
v 0.066971 0.956971 0.930000
v 0.050000 0.964000 0.930000
v 0.033029 0.956971 0.930000
f 871 870 869 868 867 866 865 864
f 872 873 874 875 876 877 878 879
f 864 865 873 872
f 865 866 874 873
f 866 867 875 874
f 867 868 876 875
f 868 869 877 876
f 869 870 878 877
f 870 871 879 878
f 871 864 872 879
o rail_stanchion
usemtl ivory
v 0.826000 0.940000 0.480000
v 0.833029 0.923029 0.480000
v 0.850000 0.916000 0.480000
v 0.866971 0.923029 0.480000
v 0.874000 0.940000 0.480000
v 0.866971 0.956971 0.480000
v 0.850000 0.964000 0.480000
v 0.833029 0.956971 0.480000
v 0.826000 0.940000 0.930000
v 0.833029 0.923029 0.930000
v 0.850000 0.916000 0.930000
v 0.866971 0.923029 0.930000
v 0.874000 0.940000 0.930000
v 0.866971 0.956971 0.930000
v 0.850000 0.964000 0.930000
v 0.833029 0.956971 0.930000
f 887 886 885 884 883 882 881 880
f 888 889 890 891 892 893 894 895
f 880 881 889 888
f 881 882 890 889
f 882 883 891 890
f 883 884 892 891
f 884 885 893 892
f 885 886 894 893
f 886 887 895 894
f 887 880 888 895
o rail_stanchion
usemtl ivory
v 1.626000 0.940000 0.480000
v 1.633029 0.923029 0.480000
v 1.650000 0.916000 0.480000
v 1.666971 0.923029 0.480000
v 1.674000 0.940000 0.480000
v 1.666971 0.956971 0.480000
v 1.650000 0.964000 0.480000
v 1.633029 0.956971 0.480000
v 1.626000 0.940000 0.930000
v 1.633029 0.923029 0.930000
v 1.650000 0.916000 0.930000
v 1.666971 0.923029 0.930000
v 1.674000 0.940000 0.930000
v 1.666971 0.956971 0.930000
v 1.650000 0.964000 0.930000
v 1.633029 0.956971 0.930000
f 903 902 901 900 899 898 897 896
f 904 905 906 907 908 909 910 911
f 896 897 905 904
f 897 898 906 905
f 898 899 907 906
f 899 900 908 907
f 900 901 909 908
f 901 902 910 909
f 902 903 911 910
f 903 896 904 911
o handrail
usemtl ivory
v 0.050000 0.913000 0.930000
v 0.050000 0.920908 0.910908
v 0.050000 0.940000 0.903000
v 0.050000 0.959092 0.910908
v 0.050000 0.967000 0.930000
v 0.050000 0.959092 0.949092
v 0.050000 0.940000 0.957000
v 0.050000 0.920908 0.949092
v 1.650000 0.913000 0.930000
v 1.650000 0.920908 0.910908
v 1.650000 0.940000 0.903000
v 1.650000 0.959092 0.910908
v 1.650000 0.967000 0.930000
v 1.650000 0.959092 0.949092
v 1.650000 0.940000 0.957000
v 1.650000 0.920908 0.949092
f 919 918 917 916 915 914 913 912
f 920 921 922 923 924 925 926 927
f 912 913 921 920
f 913 914 922 921
f 914 915 923 922
f 915 916 924 923
f 916 917 925 924
f 917 918 926 925
f 918 919 927 926
f 919 912 920 927
o bow_rail
usemtl ivory
v 1.640812 0.915678 0.930000
v 1.643503 0.922802 0.911615
v 1.650000 0.940000 0.904000
v 1.656497 0.957198 0.911615
v 1.659188 0.964322 0.930000
v 1.656497 0.957198 0.948385
v 1.650000 0.940000 0.956000
v 1.643503 0.922802 0.948385
v 2.540812 0.575678 0.930000
v 2.543503 0.582802 0.911615
v 2.550000 0.600000 0.904000
v 2.556497 0.617198 0.911615
v 2.559188 0.624322 0.930000
v 2.556497 0.617198 0.948385
v 2.550000 0.600000 0.956000
v 2.543503 0.582802 0.948385
f 935 934 933 932 931 930 929 928
f 936 937 938 939 940 941 942 943
f 928 929 937 936
f 929 930 938 937
f 930 931 939 938
f 931 932 940 939
f 932 933 941 940
f 933 934 942 941
f 934 935 943 942
f 935 928 936 943
o bow_rail
usemtl ivory
v 2.531615 0.581615 0.930000
v 2.537000 0.587000 0.911615
v 2.550000 0.600000 0.904000
v 2.563000 0.613000 0.911615
v 2.568385 0.618385 0.930000
v 2.563000 0.613000 0.948385
v 2.550000 0.600000 0.956000
v 2.537000 0.587000 0.948385
v 3.131615 -0.018385 0.930000
v 3.137000 -0.013000 0.911615
v 3.150000 -0.000000 0.904000
v 3.163000 0.013000 0.911615
v 3.168385 0.018385 0.930000
v 3.163000 0.013000 0.948385
v 3.150000 0.000000 0.956000
v 3.137000 -0.013000 0.948385
f 951 950 949 948 947 946 945 944
f 952 953 954 955 956 957 958 959
f 944 945 953 952
f 945 946 954 953
f 946 947 955 954
f 947 948 956 955
f 948 949 957 956
f 949 950 958 957
f 950 951 959 958
f 951 944 952 959
o fender
usemtl rubber
v -2.505000 1.047000 0.100000
v -2.484947 0.985283 0.100000
v -2.432447 0.947139 0.100000
v -2.367553 0.947139 0.100000
v -2.315053 0.985283 0.100000
v -2.295000 1.047000 0.100000
v -2.315053 1.108717 0.100000
v -2.367553 1.146861 0.100000
v -2.432447 1.146861 0.100000
v -2.484947 1.108717 0.100000
v -2.505000 1.047000 0.520000
v -2.484947 0.985283 0.520000
v -2.432447 0.947139 0.520000
v -2.367553 0.947139 0.520000
v -2.315053 0.985283 0.520000
v -2.295000 1.047000 0.520000
v -2.315053 1.108717 0.520000
v -2.367553 1.146861 0.520000
v -2.432447 1.146861 0.520000
v -2.484947 1.108717 0.520000
f 969 968 967 966 965 964 963 962 961 960
f 970 971 972 973 974 975 976 977 978 979
f 960 961 971 970
f 961 962 972 971
f 962 963 973 972
f 963 964 974 973
f 964 965 975 974
f 965 966 976 975
f 966 967 977 976
f 967 968 978 977
f 968 969 979 978
f 969 960 970 979
o fender_rope
usemtl paper
v -2.412000 1.020000 0.490000
v -2.406000 1.009842 0.487804
v -2.394000 1.009842 0.487804
v -2.388000 1.020000 0.490000
v -2.394000 1.030158 0.492196
v -2.406000 1.030158 0.492196
v -2.412000 0.940000 0.860000
v -2.406000 0.929842 0.857804
v -2.394000 0.929842 0.857804
v -2.388000 0.940000 0.860000
v -2.394000 0.950158 0.862196
v -2.406000 0.950158 0.862196
f 985 984 983 982 981 980
f 986 987 988 989 990 991
f 980 981 987 986
f 981 982 988 987
f 982 983 989 988
f 983 984 990 989
f 984 985 991 990
f 985 980 986 991
o fender
usemtl rubber
v -0.805000 1.047000 0.100000
v -0.784947 0.985283 0.100000
v -0.732447 0.947139 0.100000
v -0.667553 0.947139 0.100000
v -0.615053 0.985283 0.100000
v -0.595000 1.047000 0.100000
v -0.615053 1.108717 0.100000
v -0.667553 1.146861 0.100000
v -0.732447 1.146861 0.100000
v -0.784947 1.108717 0.100000
v -0.805000 1.047000 0.520000
v -0.784947 0.985283 0.520000
v -0.732447 0.947139 0.520000
v -0.667553 0.947139 0.520000
v -0.615053 0.985283 0.520000
v -0.595000 1.047000 0.520000
v -0.615053 1.108717 0.520000
v -0.667553 1.146861 0.520000
v -0.732447 1.146861 0.520000
v -0.784947 1.108717 0.520000
f 1001 1000 999 998 997 996 995 994 993 992
f 1002 1003 1004 1005 1006 1007 1008 1009 1010 1011
f 992 993 1003 1002
f 993 994 1004 1003
f 994 995 1005 1004
f 995 996 1006 1005
f 996 997 1007 1006
f 997 998 1008 1007
f 998 999 1009 1008
f 999 1000 1010 1009
f 1000 1001 1011 1010
f 1001 992 1002 1011
o fender_rope
usemtl paper
v -0.712000 1.020000 0.490000
v -0.706000 1.009842 0.487804
v -0.694000 1.009842 0.487804
v -0.688000 1.020000 0.490000
v -0.694000 1.030158 0.492196
v -0.706000 1.030158 0.492196
v -0.712000 0.940000 0.860000
v -0.706000 0.929842 0.857804
v -0.694000 0.929842 0.857804
v -0.688000 0.940000 0.860000
v -0.694000 0.950158 0.862196
v -0.706000 0.950158 0.862196
f 1017 1016 1015 1014 1013 1012
f 1018 1019 1020 1021 1022 1023
f 1012 1013 1019 1018
f 1013 1014 1020 1019
f 1014 1015 1021 1020
f 1015 1016 1022 1021
f 1016 1017 1023 1022
f 1017 1012 1018 1023
o fender
usemtl rubber
v 1.245000 1.047000 0.100000
v 1.265053 0.985283 0.100000
v 1.317553 0.947139 0.100000
v 1.382447 0.947139 0.100000
v 1.434947 0.985283 0.100000
v 1.455000 1.047000 0.100000
v 1.434947 1.108717 0.100000
v 1.382447 1.146861 0.100000
v 1.317553 1.146861 0.100000
v 1.265053 1.108717 0.100000
v 1.245000 1.047000 0.520000
v 1.265053 0.985283 0.520000
v 1.317553 0.947139 0.520000
v 1.382447 0.947139 0.520000
v 1.434947 0.985283 0.520000
v 1.455000 1.047000 0.520000
v 1.434947 1.108717 0.520000
v 1.382447 1.146861 0.520000
v 1.317553 1.146861 0.520000
v 1.265053 1.108717 0.520000
f 1033 1032 1031 1030 1029 1028 1027 1026 1025 1024
f 1034 1035 1036 1037 1038 1039 1040 1041 1042 1043
f 1024 1025 1035 1034
f 1025 1026 1036 1035
f 1026 1027 1037 1036
f 1027 1028 1038 1037
f 1028 1029 1039 1038
f 1029 1030 1040 1039
f 1030 1031 1041 1040
f 1031 1032 1042 1041
f 1032 1033 1043 1042
f 1033 1024 1034 1043
o fender_rope
usemtl paper
v 1.338000 1.020000 0.490000
v 1.344000 1.009842 0.487804
v 1.356000 1.009842 0.487804
v 1.362000 1.020000 0.490000
v 1.356000 1.030158 0.492196
v 1.344000 1.030158 0.492196
v 1.338000 0.940000 0.860000
v 1.344000 0.929842 0.857804
v 1.356000 0.929842 0.857804
v 1.362000 0.940000 0.860000
v 1.356000 0.950158 0.862196
v 1.344000 0.950158 0.862196
f 1049 1048 1047 1046 1045 1044
f 1050 1051 1052 1053 1054 1055
f 1044 1045 1051 1050
f 1045 1046 1052 1051
f 1046 1047 1053 1052
f 1047 1048 1054 1053
f 1048 1049 1055 1054
f 1049 1044 1050 1055
o bow_stanchion
usemtl ivory
v 3.125000 0.000000 0.460000
v 3.132322 -0.017678 0.460000
v 3.150000 -0.025000 0.460000
v 3.167678 -0.017678 0.460000
v 3.175000 -0.000000 0.460000
v 3.167678 0.017678 0.460000
v 3.150000 0.025000 0.460000
v 3.132322 0.017678 0.460000
v 3.125000 0.000000 0.930000
v 3.132322 -0.017678 0.930000
v 3.150000 -0.025000 0.930000
v 3.167678 -0.017678 0.930000
v 3.175000 -0.000000 0.930000
v 3.167678 0.017678 0.930000
v 3.150000 0.025000 0.930000
v 3.132322 0.017678 0.930000
f 1063 1062 1061 1060 1059 1058 1057 1056
f 1064 1065 1066 1067 1068 1069 1070 1071
f 1056 1057 1065 1064
f 1057 1058 1066 1065
f 1058 1059 1067 1066
f 1059 1060 1068 1067
f 1060 1061 1069 1068
f 1061 1062 1070 1069
f 1062 1063 1071 1070
f 1063 1056 1064 1071
o cleat_stem
usemtl bottom
v -2.858000 0.000000 0.490000
v -2.849799 -0.019799 0.490000
v -2.830000 -0.028000 0.490000
v -2.810201 -0.019799 0.490000
v -2.802000 -0.000000 0.490000
v -2.810201 0.019799 0.490000
v -2.830000 0.028000 0.490000
v -2.849799 0.019799 0.490000
v -2.858000 0.000000 0.590000
v -2.849799 -0.019799 0.590000
v -2.830000 -0.028000 0.590000
v -2.810201 -0.019799 0.590000
v -2.802000 -0.000000 0.590000
v -2.810201 0.019799 0.590000
v -2.830000 0.028000 0.590000
v -2.849799 0.019799 0.590000
f 1079 1078 1077 1076 1075 1074 1073 1072
f 1080 1081 1082 1083 1084 1085 1086 1087
f 1072 1073 1081 1080
f 1073 1074 1082 1081
f 1074 1075 1083 1082
f 1075 1076 1084 1083
f 1076 1077 1085 1084
f 1077 1078 1086 1085
f 1078 1079 1087 1086
f 1079 1072 1080 1087
o cleat_bar
usemtl bottom
v -2.797000 -0.130000 0.590000
v -2.806665 -0.130000 0.566665
v -2.830000 -0.130000 0.557000
v -2.853335 -0.130000 0.566665
v -2.863000 -0.130000 0.590000
v -2.853335 -0.130000 0.613335
v -2.830000 -0.130000 0.623000
v -2.806665 -0.130000 0.613335
v -2.797000 0.130000 0.590000
v -2.806665 0.130000 0.566665
v -2.830000 0.130000 0.557000
v -2.853335 0.130000 0.566665
v -2.863000 0.130000 0.590000
v -2.853335 0.130000 0.613335
v -2.830000 0.130000 0.623000
v -2.806665 0.130000 0.613335
f 1095 1094 1093 1092 1091 1090 1089 1088
f 1096 1097 1098 1099 1100 1101 1102 1103
f 1088 1089 1097 1096
f 1089 1090 1098 1097
f 1090 1091 1099 1098
f 1091 1092 1100 1099
f 1092 1093 1101 1100
f 1093 1094 1102 1101
f 1094 1095 1103 1102
f 1095 1088 1096 1103
o cleat_stem
usemtl bottom
v 2.572000 0.000000 0.490000
v 2.580201 -0.019799 0.490000
v 2.600000 -0.028000 0.490000
v 2.619799 -0.019799 0.490000
v 2.628000 -0.000000 0.490000
v 2.619799 0.019799 0.490000
v 2.600000 0.028000 0.490000
v 2.580201 0.019799 0.490000
v 2.572000 0.000000 0.590000
v 2.580201 -0.019799 0.590000
v 2.600000 -0.028000 0.590000
v 2.619799 -0.019799 0.590000
v 2.628000 -0.000000 0.590000
v 2.619799 0.019799 0.590000
v 2.600000 0.028000 0.590000
v 2.580201 0.019799 0.590000
f 1111 1110 1109 1108 1107 1106 1105 1104
f 1112 1113 1114 1115 1116 1117 1118 1119
f 1104 1105 1113 1112
f 1105 1106 1114 1113
f 1106 1107 1115 1114
f 1107 1108 1116 1115
f 1108 1109 1117 1116
f 1109 1110 1118 1117
f 1110 1111 1119 1118
f 1111 1104 1112 1119
o cleat_bar
usemtl bottom
v 2.633000 -0.130000 0.590000
v 2.623335 -0.130000 0.566665
v 2.600000 -0.130000 0.557000
v 2.576665 -0.130000 0.566665
v 2.567000 -0.130000 0.590000
v 2.576665 -0.130000 0.613335
v 2.600000 -0.130000 0.623000
v 2.623335 -0.130000 0.613335
v 2.633000 0.130000 0.590000
v 2.623335 0.130000 0.566665
v 2.600000 0.130000 0.557000
v 2.576665 0.130000 0.566665
v 2.567000 0.130000 0.590000
v 2.576665 0.130000 0.613335
v 2.600000 0.130000 0.623000
v 2.623335 0.130000 0.613335
f 1127 1126 1125 1124 1123 1122 1121 1120
f 1128 1129 1130 1131 1132 1133 1134 1135
f 1120 1121 1129 1128
f 1121 1122 1130 1129
f 1122 1123 1131 1130
f 1123 1124 1132 1131
f 1124 1125 1133 1132
f 1125 1126 1134 1133
f 1126 1127 1135 1134
f 1127 1120 1128 1135
o ring_buoy
usemtl band
v -1.911000 -0.775000 0.880000
v -1.938000 -0.728235 0.880000
v -1.992000 -0.728235 0.880000
v -2.019000 -0.775000 0.880000
v -1.992000 -0.821765 0.880000
v -1.938000 -0.821765 0.880000
v -1.925145 -0.775000 0.969306
v -1.950823 -0.728235 0.960962
v -2.002180 -0.728235 0.944276
v -2.027859 -0.775000 0.935932
v -2.002180 -0.821765 0.944276
v -1.950823 -0.821765 0.960962
v -1.966194 -0.775000 1.049870
v -1.988038 -0.728235 1.034000
v -2.031724 -0.728235 1.002259
v -2.053568 -0.775000 0.986389
v -2.031724 -0.821765 1.002259
v -1.988038 -0.821765 1.034000
v -2.030130 -0.775000 1.113806
v -2.046000 -0.728235 1.091962
v -2.077741 -0.728235 1.048276
v -2.093611 -0.775000 1.026432
v -2.077741 -0.821765 1.048276
v -2.046000 -0.821765 1.091962
v -2.110694 -0.775000 1.154855
v -2.119038 -0.728235 1.129177
v -2.135724 -0.728235 1.077820
v -2.144068 -0.775000 1.052141
v -2.135724 -0.821765 1.077820
v -2.119038 -0.821765 1.129177
v -2.200000 -0.775000 1.169000
v -2.200000 -0.728235 1.142000
v -2.200000 -0.728235 1.088000
v -2.200000 -0.775000 1.061000
v -2.200000 -0.821765 1.088000
v -2.200000 -0.821765 1.142000
v -2.289306 -0.775000 1.154855
v -2.280962 -0.728235 1.129177
v -2.264276 -0.728235 1.077820
v -2.255932 -0.775000 1.052141
v -2.264276 -0.821765 1.077820
v -2.280962 -0.821765 1.129177
v -2.369870 -0.775000 1.113806
v -2.354000 -0.728235 1.091962
v -2.322259 -0.728235 1.048276
v -2.306389 -0.775000 1.026432
v -2.322259 -0.821765 1.048276
v -2.354000 -0.821765 1.091962
v -2.433806 -0.775000 1.049870
v -2.411962 -0.728235 1.034000
v -2.368276 -0.728235 1.002259
v -2.346432 -0.775000 0.986389
v -2.368276 -0.821765 1.002259
v -2.411962 -0.821765 1.034000
v -2.474855 -0.775000 0.969306
v -2.449177 -0.728235 0.960962
v -2.397820 -0.728235 0.944276
v -2.372141 -0.775000 0.935932
v -2.397820 -0.821765 0.944276
v -2.449177 -0.821765 0.960962
v -2.489000 -0.775000 0.880000
v -2.462000 -0.728235 0.880000
v -2.408000 -0.728235 0.880000
v -2.381000 -0.775000 0.880000
v -2.408000 -0.821765 0.880000
v -2.462000 -0.821765 0.880000
v -2.474855 -0.775000 0.790694
v -2.449177 -0.728235 0.799038
v -2.397820 -0.728235 0.815724
v -2.372141 -0.775000 0.824068
v -2.397820 -0.821765 0.815724
v -2.449177 -0.821765 0.799038
v -2.433806 -0.775000 0.710130
v -2.411962 -0.728235 0.726000
v -2.368276 -0.728235 0.757741
v -2.346432 -0.775000 0.773611
v -2.368276 -0.821765 0.757741
v -2.411962 -0.821765 0.726000
v -2.369870 -0.775000 0.646194
v -2.354000 -0.728235 0.668038
v -2.322259 -0.728235 0.711724
v -2.306389 -0.775000 0.733568
v -2.322259 -0.821765 0.711724
v -2.354000 -0.821765 0.668038
v -2.289306 -0.775000 0.605145
v -2.280962 -0.728235 0.630823
v -2.264276 -0.728235 0.682180
v -2.255932 -0.775000 0.707859
v -2.264276 -0.821765 0.682180
v -2.280962 -0.821765 0.630823
v -2.200000 -0.775000 0.591000
v -2.200000 -0.728235 0.618000
v -2.200000 -0.728235 0.672000
v -2.200000 -0.775000 0.699000
v -2.200000 -0.821765 0.672000
v -2.200000 -0.821765 0.618000
v -2.110694 -0.775000 0.605145
v -2.119038 -0.728235 0.630823
v -2.135724 -0.728235 0.682180
v -2.144068 -0.775000 0.707859
v -2.135724 -0.821765 0.682180
v -2.119038 -0.821765 0.630823
v -2.030130 -0.775000 0.646194
v -2.046000 -0.728235 0.668038
v -2.077741 -0.728235 0.711724
v -2.093611 -0.775000 0.733568
v -2.077741 -0.821765 0.711724
v -2.046000 -0.821765 0.668038
v -1.966194 -0.775000 0.710130
v -1.988038 -0.728235 0.726000
v -2.031724 -0.728235 0.757741
v -2.053568 -0.775000 0.773611
v -2.031724 -0.821765 0.757741
v -1.988038 -0.821765 0.726000
v -1.925145 -0.775000 0.790694
v -1.950823 -0.728235 0.799038
v -2.002180 -0.728235 0.815724
v -2.027859 -0.775000 0.824068
v -2.002180 -0.821765 0.815724
v -1.950823 -0.821765 0.799038
f 1136 1142 1143 1137
f 1137 1143 1144 1138
f 1138 1144 1145 1139
f 1139 1145 1146 1140
f 1140 1146 1147 1141
f 1141 1147 1142 1136
f 1142 1148 1149 1143
f 1143 1149 1150 1144
f 1144 1150 1151 1145
f 1145 1151 1152 1146
f 1146 1152 1153 1147
f 1147 1153 1148 1142
f 1148 1154 1155 1149
f 1149 1155 1156 1150
f 1150 1156 1157 1151
f 1151 1157 1158 1152
f 1152 1158 1159 1153
f 1153 1159 1154 1148
f 1154 1160 1161 1155
f 1155 1161 1162 1156
f 1156 1162 1163 1157
f 1157 1163 1164 1158
f 1158 1164 1165 1159
f 1159 1165 1160 1154
f 1160 1166 1167 1161
f 1161 1167 1168 1162
f 1162 1168 1169 1163
f 1163 1169 1170 1164
f 1164 1170 1171 1165
f 1165 1171 1166 1160
f 1166 1172 1173 1167
f 1167 1173 1174 1168
f 1168 1174 1175 1169
f 1169 1175 1176 1170
f 1170 1176 1177 1171
f 1171 1177 1172 1166
f 1172 1178 1179 1173
f 1173 1179 1180 1174
f 1174 1180 1181 1175
f 1175 1181 1182 1176
f 1176 1182 1183 1177
f 1177 1183 1178 1172
f 1178 1184 1185 1179
f 1179 1185 1186 1180
f 1180 1186 1187 1181
f 1181 1187 1188 1182
f 1182 1188 1189 1183
f 1183 1189 1184 1178
f 1184 1190 1191 1185
f 1185 1191 1192 1186
f 1186 1192 1193 1187
f 1187 1193 1194 1188
f 1188 1194 1195 1189
f 1189 1195 1190 1184
f 1190 1196 1197 1191
f 1191 1197 1198 1192
f 1192 1198 1199 1193
f 1193 1199 1200 1194
f 1194 1200 1201 1195
f 1195 1201 1196 1190
f 1196 1202 1203 1197
f 1197 1203 1204 1198
f 1198 1204 1205 1199
f 1199 1205 1206 1200
f 1200 1206 1207 1201
f 1201 1207 1202 1196
f 1202 1208 1209 1203
f 1203 1209 1210 1204
f 1204 1210 1211 1205
f 1205 1211 1212 1206
f 1206 1212 1213 1207
f 1207 1213 1208 1202
f 1208 1214 1215 1209
f 1209 1215 1216 1210
f 1210 1216 1217 1211
f 1211 1217 1218 1212
f 1212 1218 1219 1213
f 1213 1219 1214 1208
f 1214 1220 1221 1215
f 1215 1221 1222 1216
f 1216 1222 1223 1217
f 1217 1223 1224 1218
f 1218 1224 1225 1219
f 1219 1225 1220 1214
f 1220 1226 1227 1221
f 1221 1227 1228 1222
f 1222 1228 1229 1223
f 1223 1229 1230 1224
f 1224 1230 1231 1225
f 1225 1231 1226 1220
f 1226 1232 1233 1227
f 1227 1233 1234 1228
f 1228 1234 1235 1229
f 1229 1235 1236 1230
f 1230 1236 1237 1231
f 1231 1237 1232 1226
f 1232 1238 1239 1233
f 1233 1239 1240 1234
f 1234 1240 1241 1235
f 1235 1241 1242 1236
f 1236 1242 1243 1237
f 1237 1243 1238 1232
f 1238 1244 1245 1239
f 1239 1245 1246 1240
f 1240 1246 1247 1241
f 1241 1247 1248 1242
f 1242 1248 1249 1243
f 1243 1249 1244 1238
f 1244 1250 1251 1245
f 1245 1251 1252 1246
f 1246 1252 1253 1247
f 1247 1253 1254 1248
f 1248 1254 1255 1249
f 1249 1255 1250 1244
f 1250 1136 1137 1251
f 1251 1137 1138 1252
f 1252 1138 1139 1253
f 1253 1139 1140 1254
f 1254 1140 1141 1255
f 1255 1141 1136 1250
